<?xml version="1.0" encoding="utf-8"?>
<!DOCTYPE svg PUBLIC "-//W3C//DTD SVG 20010904//EN" "http://www.w3.org/TR/2001/REC-SVG-20010904/DTD/svg10.dtd">
<svg version="1.0" xmlns="http://www.w3.org/2000/svg" width="1202pt" height="1202pt" viewBox="0 0 1202 1202" preserveAspectRatio="xMidYMid meet">
<g fill="#ffffff">
<path d="M 179.22 701.42 C 173.63 698.64 170.17 695.09 166.70 688.62 L 164.50 684.50 L 164.22 603.10 C 163.91 512.69 163.75 515.15 170.47 507.31 C 172.41 505.04 176.34 502.01 179.20 500.59 L 184.39 498.00 L 267.07 498.00 C 340.95 498.00 350.17 498.17 353.63 499.62 C 359.95 502.25 364.71 506.72 367.70 512.79 L 370.50 518.50 L 370.50 601.00 L 370.50 683.50 L 367.70 689.21 C 366.10 692.46 363.23 696.23 361.04 697.97 C 353.14 704.23 356.71 704.00 266.57 704.00 L 184.39 704.00 L 179.22 701.42ZM 336.30 680.39 C 338.06 679.50 340.97 677.38 342.78 675.67 C 348.95 669.80 349.00 669.24 349.00 601.87 C 349.00 561.19 348.63 539.39 347.89 535.93 C 347.15 532.47 345.64 529.50 343.33 526.94 C 336.76 519.67 339.35 519.90 265.50 520.22 L 199.50 520.50 L 195.82 522.99 C 191.11 526.18 187.25 532.14 186.49 537.39 C 186.16 539.65 186.03 569.85 186.20 604.50 C 186.53 673.69 186.19 669.88 192.66 676.41 C 198.28 682.08 196.09 681.92 267.30 681.96 C 325.88 682.00 333.45 681.82 336.30 680.39ZM 201.11 670.60 C 195.98 667.76 196.07 669.02 196.04 601.20 C 196.00 533.40 195.98 533.69 200.94 531.03 C 202.21 530.35 225.16 530.00 267.75 530.00 L 332.63 530.00 L 335.56 533.07 L 338.50 536.13 L 338.50 601.15 L 338.50 666.16 L 335.23 669.08 L 331.97 672.00 L 267.73 671.96 C 216.34 671.94 203.02 671.66 201.11 670.60ZM 245.43 620.75 L 247.37 614.00 L 257.45 614.00 L 267.52 614.00 L 269.38 620.47 C 270.57 624.65 271.85 627.14 272.98 627.49 C 275.28 628.22 279.99 626.40 280.02 624.77 C 280.03 624.07 276.37 611.12 271.88 596.00 C 263.48 567.74 262.21 565.00 257.50 565.00 C 252.80 565.00 251.46 567.79 243.12 595.04 C 238.65 609.64 235.00 622.56 235.00 623.74 C 235.00 626.35 237.59 628.07 241.00 627.74 C 243.17 627.53 243.75 626.61 245.43 620.75ZM 294.07 626.96 C 295.91 625.98 296.00 624.57 296.00 596.57 C 296.00 564.78 296.21 566.00 290.62 566.00 C 286.12 566.00 286.00 566.81 286.00 597.15 C 286.00 623.48 286.15 625.99 287.75 626.92 C 290.01 628.24 291.67 628.25 294.07 626.96Z"/></g>
<g fill="#ffffff">
<path d="M 862.74 687.44 C 851.69 684.76 842.89 678.57 836.50 668.98 C 829.05 657.81 825.82 646.73 824.53 628.00 C 821.43 583.03 847.41 549.97 884.00 552.30 C 893.97 552.93 901.90 555.62 908.34 560.54 C 910.84 562.44 913.13 564.00 913.43 564.00 C 913.73 564.00 914.09 548.36 914.24 529.25 L 914.50 494.50 L 929.76 494.50 L 945.01 494.50 L 945.26 590.75 L 945.50 687.00 L 934.29 687.00 C 924.22 687.00 922.88 686.79 921.14 684.92 C 919.22 682.86 917.00 675.99 917.00 672.12 C 917.00 668.50 914.87 668.71 910.66 672.74 C 902.10 680.92 894.14 685.14 882.68 687.56 C 874.45 689.30 870.32 689.27 862.74 687.44ZM 898.22 660.79 C 901.36 659.33 906.21 656.02 908.98 653.42 L 914.03 648.70 L 913.76 617.66 L 913.50 586.62 L 908.33 582.40 C 896.14 572.47 878.20 572.86 867.77 583.30 C 852.53 598.54 852.04 642.88 866.95 657.79 C 873.65 664.50 887.37 665.81 898.22 660.79Z"/></g>
<g fill="#ffffff">
<path d="M 1023.50 687.49 C 997.68 682.70 980.03 665.79 973.43 639.50 C 970.93 629.52 970.94 606.90 973.45 598.00 C 977.04 585.30 984.54 573.48 993.96 565.66 C 1011.82 550.86 1042.32 547.88 1063.72 558.85 C 1073.77 564.00 1083.68 576.04 1088.53 589.00 C 1090.53 594.34 1091.71 618.59 1090.08 621.00 C 1089.22 622.28 1082.77 622.57 1045.79 623.00 L 1002.50 623.50 L 1002.70 628.00 C 1003.14 637.79 1008.41 650.39 1014.56 656.36 C 1021.42 663.02 1025.95 664.50 1039.53 664.50 L 1051.57 664.50 L 1062.03 659.24 C 1076.59 651.93 1077.96 652.05 1084.94 661.21 L 1090.39 668.35 L 1085.49 672.66 C 1076.74 680.35 1065.00 685.25 1049.79 687.53 C 1038.30 689.26 1033.01 689.25 1023.50 687.49ZM 1063.18 599.60 C 1062.04 581.93 1043.69 570.96 1024.57 576.52 C 1015.44 579.18 1008.74 585.73 1005.04 595.63 C 1002.87 601.42 1002.59 603.25 1003.68 604.35 C 1004.06 604.72 1017.67 604.91 1033.93 604.76 L 1063.50 604.50 L 1063.18 599.60Z"/></g>
<g fill="#ffffff">
<path d="M 717.28 687.44 C 705.30 684.81 697.76 679.06 693.17 669.05 C 689.84 661.79 689.15 651.44 691.46 643.50 C 694.86 631.81 709.19 621.06 728.00 616.11 C 736.40 613.89 756.90 611.00 764.19 611.00 C 768.53 611.00 769.02 610.76 769.63 608.33 C 770.59 604.53 768.39 591.69 765.99 586.98 C 764.87 584.79 762.09 581.76 759.80 580.25 C 755.95 577.70 754.89 577.50 745.52 577.50 L 735.39 577.50 L 725.11 582.75 C 714.18 588.33 709.25 589.26 705.29 586.49 C 702.47 584.51 696.66 574.32 697.35 572.54 C 698.65 569.15 712.11 560.77 722.20 557.06 C 753.40 545.61 783.19 554.08 794.16 577.53 C 799.37 588.66 799.93 594.95 799.97 643.25 L 800.00 687.00 L 790.63 687.00 C 778.92 687.00 776.75 685.66 774.32 676.91 C 773.41 673.66 772.32 671.00 771.89 671.00 C 771.46 671.00 768.21 673.19 764.67 675.87 C 756.05 682.40 749.15 685.51 739.13 687.42 C 729.33 689.28 725.69 689.28 717.28 687.44ZM 754.15 663.80 C 757.25 662.37 762.09 658.99 764.90 656.29 L 770.00 651.37 L 769.98 641.93 C 769.98 636.75 769.57 631.87 769.08 631.10 C 768.36 629.96 766.02 629.82 756.85 630.34 C 729.77 631.87 716.99 640.66 720.24 655.49 C 721.26 660.13 723.15 662.47 728.00 665.12 C 733.24 667.99 746.49 667.32 754.15 663.80Z"/></g>
<g fill="#ffffff">
<path d="M 518.76 607.25 L 518.50 527.50 L 490.75 527.23 L 463.00 526.97 L 463.00 512.98 L 463.00 499.00 L 536.50 499.00 L 610.00 499.00 L 610.00 512.98 L 610.00 526.97 L 581.75 527.23 L 553.50 527.50 L 553.24 607.25 L 552.99 687.00 L 536.00 687.00 L 519.01 687.00 L 518.76 607.25Z"/></g>
<g fill="#ffffff">
<path d="M 604.24 620.37 L 604.50 553.74 L 615.50 553.93 C 628.76 554.15 630.49 554.97 631.38 561.44 C 631.72 563.95 632.28 568.04 632.62 570.54 C 632.96 573.04 633.60 574.95 634.03 574.79 C 634.47 574.63 636.88 571.70 639.39 568.27 C 647.14 557.72 657.58 551.99 669.07 552.01 C 673.54 552.01 679.43 553.32 681.77 554.83 C 683.43 555.89 681.75 580.39 679.87 582.65 C 678.84 583.89 676.99 584.04 669.41 583.47 C 661.94 582.91 659.19 583.11 654.90 584.53 C 648.42 586.69 641.65 593.19 637.75 601.01 L 635.00 606.53 L 635.00 646.76 L 635.00 687.00 L 619.49 687.00 L 603.99 687.00 L 604.24 620.37Z"/></g>
<g fill="#ffffff">
<path d="M 248.00 481.02 C 245.68 479.56 245.20 440.87 247.46 437.41 C 249.30 434.62 251.21 434.35 253.43 436.57 C 254.75 437.90 255.00 441.29 255.00 458.14 C 255.00 470.01 254.58 478.92 253.96 480.07 C 252.85 482.15 250.41 482.54 248.00 481.02Z"/></g>
<g fill="#ffffff">
<path d="M 247.56 764.78 C 246.28 762.96 246.00 759.19 246.01 744.03 C 246.02 733.84 246.30 724.48 246.63 723.24 C 246.98 721.93 248.30 720.71 249.78 720.34 C 254.51 719.15 255.00 721.34 255.00 743.62 C 255.00 760.68 254.75 764.10 253.43 765.43 C 251.26 767.60 249.39 767.39 247.56 764.78Z"/></g>
<g fill="#ffffff">
<path d="M 388.20 554.80 C 387.54 554.14 387.00 552.65 387.00 551.50 C 387.00 547.29 388.42 547.00 409.27 547.00 C 421.05 547.00 429.92 547.42 431.07 548.04 C 432.16 548.62 433.00 550.12 433.00 551.50 C 433.00 552.88 432.16 554.38 431.07 554.96 C 428.21 556.49 389.75 556.35 388.20 554.80Z"/></g>
<g fill="#ffffff">
<path d="M 388.20 653.80 C 387.54 653.14 387.00 651.65 387.00 650.50 C 387.00 646.29 388.42 646.00 409.27 646.00 C 421.05 646.00 429.92 646.42 431.07 647.04 C 432.16 647.62 433.00 649.12 433.00 650.50 C 433.00 651.88 432.16 653.38 431.07 653.96 C 428.21 655.49 389.75 655.35 388.20 653.80Z"/></g>
<g fill="#ffffff">
<path d="M 103.75 554.92 C 101.40 553.55 101.51 549.33 103.93 548.04 C 105.07 547.43 113.72 547.00 125.00 547.00 C 136.28 547.00 144.93 547.43 146.07 548.04 C 147.16 548.62 148.00 550.12 148.00 551.50 C 148.00 552.88 147.16 554.38 146.07 554.96 C 143.52 556.33 106.10 556.29 103.75 554.92Z"/></g>
<g fill="#ffffff">
<path d="M 103.75 653.92 C 101.40 652.55 101.51 648.33 103.93 647.04 C 105.07 646.43 113.72 646.00 125.00 646.00 C 136.28 646.00 144.93 646.43 146.07 647.04 C 147.16 647.62 148.00 649.12 148.00 650.50 C 148.00 651.88 147.16 653.38 146.07 653.96 C 143.52 655.33 106.10 655.29 103.75 653.92Z"/></g>
<g fill="#ffffff">
<path d="M 314.20 480.80 C 313.34 479.94 313.00 473.54 313.00 458.34 C 313.00 438.09 313.10 437.02 315.00 436.00 C 316.42 435.24 317.58 435.24 319.00 436.00 C 320.90 437.02 321.00 438.09 321.00 458.34 C 321.00 480.13 320.68 482.00 317.00 482.00 C 316.12 482.00 314.86 481.46 314.20 480.80Z"/></g>
<g fill="#ffffff">
<path d="M 281.20 480.80 C 280.34 479.94 280.00 473.66 280.00 458.87 C 280.00 441.36 280.24 437.90 281.57 436.57 C 282.44 435.71 283.70 435.00 284.37 435.00 C 287.64 435.00 288.00 437.34 288.00 458.50 C 288.00 480.13 287.68 482.00 284.00 482.00 C 283.12 482.00 281.86 481.46 281.20 480.80Z"/></g>
<g fill="#ffffff">
<path d="M 215.20 480.80 C 214.34 479.94 214.00 473.54 214.00 458.34 C 214.00 438.09 214.10 437.02 216.00 436.00 C 217.42 435.24 218.58 435.24 220.00 436.00 C 221.90 437.02 222.00 438.09 222.00 458.34 C 222.00 480.13 221.68 482.00 218.00 482.00 C 217.12 482.00 215.86 481.46 215.20 480.80Z"/></g>
<g fill="#ffffff">
<path d="M 314.67 765.75 C 313.13 764.62 312.99 762.33 313.23 743.11 C 313.47 724.00 313.69 721.60 315.25 720.61 C 316.53 719.81 317.47 719.81 318.75 720.61 C 320.31 721.60 320.53 724.00 320.77 743.11 C 321.01 762.33 320.87 764.62 319.33 765.75 C 318.39 766.44 317.34 767.00 317.00 767.00 C 316.66 767.00 315.61 766.44 314.67 765.75Z"/></g>
<g fill="#ffffff">
<path d="M 281.55 765.41 C 280.18 764.04 280.00 760.92 280.23 742.77 C 280.47 723.98 280.69 721.60 282.25 720.61 C 283.53 719.81 284.47 719.81 285.75 720.61 C 287.31 721.60 287.53 723.99 287.77 742.98 C 288.04 764.36 287.68 767.00 284.45 767.00 C 283.73 767.00 282.43 766.28 281.55 765.41Z"/></g>
<g fill="#ffffff">
<path d="M 215.67 765.75 C 214.13 764.62 213.99 762.33 214.23 743.11 C 214.47 724.00 214.69 721.60 216.25 720.61 C 217.53 719.81 218.47 719.81 219.75 720.61 C 221.31 721.60 221.53 724.00 221.77 743.11 C 222.01 762.33 221.87 764.62 220.33 765.75 C 219.39 766.44 218.34 767.00 218.00 767.00 C 217.66 767.00 216.61 766.44 215.67 765.75Z"/></g>
</svg>
