<svg width="280" height="80" viewBox="0 0 280 80" fill="none" xmlns="http://www.w3.org/2000/svg">
  <defs>
    <linearGradient id="g1" x1="0" y1="0" x2="1" y2="1">
      <stop offset="0%" stop-color="#3BD0FF" />
      <stop offset="100%" stop-color="#2D71FF" />
    </linearGradient>
  </defs>
  <rect x="0" y="12" width="64" height="56" rx="18" fill="#0A1635" />
  <rect x="8" y="20" width="48" height="40" rx="12" fill="url(#g1)" />
  <rect x="16" y="24" width="8" height="8" rx="3" fill="#06172C" />
  <rect x="16" y="40" width="8" height="8" rx="3" fill="#06172C" />
  <rect x="16" y="56" width="8" height="8" rx="3" fill="#06172C" />
  <path d="M42 28C42 24.6863 44.6863 22 48 22H52C55.3137 22 58 24.6863 58 28V36C58 39.3137 55.3137 42 52 42H48C44.6863 42 42 39.3137 42 36V28Z" fill="#06172C" />
  <text x="78" y="46" fill="#EFF5FF" font-family="Inter, sans-serif" font-size="38" font-weight="700">Ai Trade</text>
  <text x="78" y="64" fill="#9FB8D4" font-family="Inter, sans-serif" font-size="14" letter-spacing="0.08em">TRADING INTELIGENTE</text>
</svg>
